<svg xmlns="http://www.w3.org/2000/svg" width="1496" height="562"><g transform="translate(-120 20)"><defs><marker id="closed-circle-at-center" viewBox="0 0 10 10" refX="5" refY="5" markerUnits="userSpaceOnUse" markerWidth="8" markerHeight="8" orient="auto-start-reverse"><circle cx="5" cy="5" r="5" fill="context-fill" stroke="context-stroke"/></marker><marker id="closed-circle-at-border" viewBox="0 0 10 10" refX="10" refY="5" markerUnits="userSpaceOnUse" markerWidth="8" markerHeight="8" orient="auto-start-reverse"><circle cx="5" cy="5" r="5" fill="context-fill" stroke="context-stroke"/></marker><marker id="closed-arrow" viewBox="0 0 10 10" refX="10" refY="5" markerUnits="userSpaceOnUse" markerWidth="8" markerHeight="8" orient="auto-start-reverse"><path d="M 0 0 L 10 5 L 0 10 z" fill="context-fill" stroke="context-stroke"/></marker><marker id="open-arrow" viewBox="0 0 10 10" refX="10" refY="5" markerUnits="userSpaceOnUse" markerWidth="8" markerHeight="8" orient="auto-start-reverse"><path d="M 0,0 L 10,5 M 10,5 L 0,10" stroke="black"/></marker></defs><path marker-end="url(#closed-arrow)" d="M 958,133.66666666666674 L 957,180" style="stroke-width: 1; stroke: black;"/><path marker-end="url(#closed-arrow)" d="M 168,76 L 220,51" style="stroke-width: 1; stroke: black;"/><path marker-end="url(#closed-arrow)" d="M 834,51 L 860,51" style="stroke-width: 1; stroke: black;"/><path marker-end="url(#closed-arrow)" d="M 1014,51 L 1060,51" style="stroke-width: 1; stroke: black;"/><path marker-end="url(#closed-arrow)" d="M 1214,51 L 1240,48" style="stroke-width: 1; stroke: black;"/><path marker-end="url(#closed-arrow)" d="M 374,51 L 420,48" style="stroke-width: 1; stroke: black;"/><path marker-end="url(#closed-arrow)" d="M 1034,275 L 1240,408" style="stroke-width: 1; stroke: black;"/><path marker-end="url(#closed-arrow)" d="M 1268,76 L 1268,380" style="stroke-width: 1; stroke: black;"/><path marker-end="url(#closed-arrow)" d="M 1296,48 L 1340,51" style="stroke-width: 1; stroke: black;"/><path marker-end="url(#closed-arrow)" d="M 448,76 L 440,420 M 440,420 L 1240,408" style="stroke-width: 1; stroke: black;"/><path marker-end="url(#closed-arrow)" d="M 476,49 L 500,51" style="stroke-width: 1; stroke: black;"/><path marker-end="url(#closed-arrow)" d="M 1296,409 L 1340,411" style="stroke-width: 1; stroke: black;"/><path marker-end="url(#closed-arrow)" d="M 1494,409 L 1540,409" style="stroke-width: 1; stroke: black;"/><path marker-end="url(#closed-arrow)" d="M 654,51 L 680,51" style="stroke-width: 1; stroke: black;"/><path marker-end="url(#closed-arrow)" d="M 1494,49 L 1540,49" style="stroke-width: 1; stroke: black;"/><g data-kie-bpmn-node-id="_B8C4F63C-81AD-4291-9C1B-84967277EEF6"><rect x="860.75" y="0.75" stroke-width="1.5" width="152.5" height="100.6" fill="rgba(255, 255, 255, 0.9)" stroke="rgba(0, 0, 0, 1)" stroke-linejoin="round" rx="3" ry="3"/><g transform="translate(863.75, 3.75)"><svg version="1.0" xmlns="http://www.w3.org/2000/svg" width="25" height="25.650557620817843" viewBox="0 0 269 276" preserveAspectRatio="xMidYMid meet"><g transform="translate(0, 276) scale(0.1, -0.1)" stroke="black" stroke-width="25"><path d="M1310 2724 c-160 -26 -279 -82 -372 -176 -76 -77 -118 -153 -142&#10;        -255 -44 -196 6 -453 121 -614 18 -26 33 -51 33 -56 0 -24 -44 -45 -116 -58&#10;        -319 -57 -613 -271 -777 -566 l-37 -66 2 -414 3 -414 23 -3 c16 -3 22 -10 22&#10;        -28 l0 -24 1258 0 1257 0 18 43 c15 38 17 84 17 437 l0 394 -32 85 c-62 165&#10;        -212 341 -374 438 -82 49 -222 101 -324 118 -84 15 -130 34 -130 55 0 4 21 42&#10;        48 86 72 120 101 217 128 430 8 58 -22 197 -57 270 -55 112 -149 207 -250 252&#10;        -114 50 -247 78 -319 66z m416 -614 c75 -7 134 -16 141 -23 10 -10 10 -27 -1&#10;        -82 -7 -39 -17 -79 -21 -90 -26 -71 -72 -149 -120 -204 -62 -70 -62 -63 2&#10;        -132 l33 -35 -2 -175 -3 -174 -400 0 -400 0 -3 173 -2 173 40 46 c22 25 40 52&#10;        40 60 0 7 -17 32 -39 56 -43 47 -101 136 -119 182 -21 54 -44 177 -36 185 5 5&#10;        27 2 49 -6 60 -22 273 -11 335 18 75 36 274 46 506 28z m194 -600 c275 -54&#10;        533 -270 626 -527 27 -74 30 -103 12 -104 -10 0 -10 -2 0 -6 9 -4 12 -86 12&#10;        -364 l0 -359 -229 0 -230 0 -1 220 c0 121 -3 227 -6 235 -7 17 -30 20 -39 5&#10;        -3 -6 -6 -97 -5 -203 0 -106 -3 -207 -6 -225 l-7 -32 -736 2 c-580 2 -736 6&#10;        -737 16 -1 6 -2 109 -3 227 -1 186 -3 216 -17 222 -8 3 -19 2 -24 -3 -5 -5&#10;        -10 -110 -12 -234 l-3 -225 -223 -3 -222 -2 0 387 0 388 39 67 c105 180 259&#10;        327 446 427 79 43 219 89 280 93 48 3 50 2 56 -27 4 -16 7 -98 8 -181 1 -129&#10;        3 -153 17 -158 20 -8 842 -8 872 0 22 6 22 8 22 188 0 101 3 186 6 189 4 4 16&#10;        5 28 2 12 -2 46 -9 76 -15z"/></g></svg></g><svg x="0" y="calc(1.5em * 0)" style="overflow: visible;"><text transform="translate(937,51)" text-anchor="middle" style="font-family: arial; font-size: 16px; line-height: 1.5em;"><tspan x="0" dy="0.355em">HR Interview</tspan></text></svg></g><g data-kie-bpmn-node-id="_116F3C54-A10E-4952-9E08-1CACE74CED0B"><circle cx="957.6666666666667" cy="105.71666666666674" stroke-width="1.5" width="54.5" height="54.600000000000016" fill="#fbefcf" stroke="#e6a000" stroke-linejoin="round" r="27.25"/><circle cx="957.6666666666667" cy="105.71666666666674" stroke-width="1.5" width="54.5" height="54.600000000000016" fill="#fbefcf" stroke="#e6a000" stroke-linejoin="round" r="22.25"/><circle cx="957.6666666666667" cy="105.71666666666674" r="16.25" stroke="#e6a000" stroke-width="1.5" fill="transparent"/><line x1="957.6666666666667" y1="105.71666666666674" x2="965.5148140052654" y2="107.81957140812472" stroke="#e6a000" stroke-width="1.5"/><line x1="957.6666666666667" y1="105.71666666666674" x2="961.4518952012911" y2="91.59000145718912" stroke="#e6a000" stroke-width="1.5"/><line x1="973.9166666666667" y1="105.71666666666674" x2="970.9166666666667" y2="105.71666666666674" stroke="#e6a000" stroke-width="1.5"/><line x1="971.7395794781638" y1="113.84166666666674" x2="969.1415032668106" y2="112.34166666666674" stroke="#e6a000" stroke-width="1.5"/><line x1="965.7916666666667" y1="119.78957947816387" x2="964.2916666666667" y2="117.19150326681056" stroke="#e6a000" stroke-width="1.5"/><line x1="957.6666666666667" y1="121.96666666666674" x2="957.6666666666667" y2="118.96666666666674" stroke="#e6a000" stroke-width="1.5"/><line x1="949.5416666666667" y1="119.78957947816387" x2="951.0416666666667" y2="117.19150326681056" stroke="#e6a000" stroke-width="1.5"/><line x1="943.5937538551697" y1="113.84166666666674" x2="946.1918300665229" y2="112.34166666666674" stroke="#e6a000" stroke-width="1.5"/><line x1="941.4166666666667" y1="105.71666666666674" x2="944.4166666666667" y2="105.71666666666674" stroke="#e6a000" stroke-width="1.5"/><line x1="943.5937538551697" y1="97.59166666666674" x2="946.1918300665229" y2="99.09166666666674" stroke="#e6a000" stroke-width="1.5"/><line x1="949.5416666666667" y1="91.64375385516962" x2="951.0416666666667" y2="94.24183006652294" stroke="#e6a000" stroke-width="1.5"/><line x1="957.6666666666667" y1="89.46666666666674" x2="957.6666666666667" y2="92.46666666666674" stroke="#e6a000" stroke-width="1.5"/><line x1="965.7916666666667" y1="91.6437538551696" x2="964.2916666666667" y2="94.24183006652292" stroke="#e6a000" stroke-width="1.5"/><line x1="971.7395794781638" y1="97.59166666666673" x2="969.1415032668106" y2="99.09166666666674" stroke="#e6a000" stroke-width="1.5"/></g><g data-kie-bpmn-node-id="_1639F738-45F3-4CD6-A80E-CCEBAA605D56"><circle cx="168" cy="48.05" stroke-width="1.5" width="54.5" height="54.599999999999994" fill="#e8fae6" stroke="#4aa241" stroke-linejoin="round" r="27.25"/></g><g data-kie-bpmn-node-id="_8962C15F-55EC-46F7-B926-5D5A1FD8D35E"><rect x="1060.75" y="0.75" stroke-width="1.5" width="152.5" height="100.6" fill="rgba(255, 255, 255, 0.9)" stroke="rgba(0, 0, 0, 1)" stroke-linejoin="round" rx="3" ry="3"/><g transform="translate(1063.75, 3.75)"><svg version="1.0" xmlns="http://www.w3.org/2000/svg" width="25" height="25.650557620817843" viewBox="0 0 269 276" preserveAspectRatio="xMidYMid meet"><g transform="translate(0, 276) scale(0.1, -0.1)" stroke="black" stroke-width="25"><path d="M1310 2724 c-160 -26 -279 -82 -372 -176 -76 -77 -118 -153 -142&#10;        -255 -44 -196 6 -453 121 -614 18 -26 33 -51 33 -56 0 -24 -44 -45 -116 -58&#10;        -319 -57 -613 -271 -777 -566 l-37 -66 2 -414 3 -414 23 -3 c16 -3 22 -10 22&#10;        -28 l0 -24 1258 0 1257 0 18 43 c15 38 17 84 17 437 l0 394 -32 85 c-62 165&#10;        -212 341 -374 438 -82 49 -222 101 -324 118 -84 15 -130 34 -130 55 0 4 21 42&#10;        48 86 72 120 101 217 128 430 8 58 -22 197 -57 270 -55 112 -149 207 -250 252&#10;        -114 50 -247 78 -319 66z m416 -614 c75 -7 134 -16 141 -23 10 -10 10 -27 -1&#10;        -82 -7 -39 -17 -79 -21 -90 -26 -71 -72 -149 -120 -204 -62 -70 -62 -63 2&#10;        -132 l33 -35 -2 -175 -3 -174 -400 0 -400 0 -3 173 -2 173 40 46 c22 25 40 52&#10;        40 60 0 7 -17 32 -39 56 -43 47 -101 136 -119 182 -21 54 -44 177 -36 185 5 5&#10;        27 2 49 -6 60 -22 273 -11 335 18 75 36 274 46 506 28z m194 -600 c275 -54&#10;        533 -270 626 -527 27 -74 30 -103 12 -104 -10 0 -10 -2 0 -6 9 -4 12 -86 12&#10;        -364 l0 -359 -229 0 -230 0 -1 220 c0 121 -3 227 -6 235 -7 17 -30 20 -39 5&#10;        -3 -6 -6 -97 -5 -203 0 -106 -3 -207 -6 -225 l-7 -32 -736 2 c-580 2 -736 6&#10;        -737 16 -1 6 -2 109 -3 227 -1 186 -3 216 -17 222 -8 3 -19 2 -24 -3 -5 -5&#10;        -10 -110 -12 -234 l-3 -225 -223 -3 -222 -2 0 387 0 388 39 67 c105 180 259&#10;        327 446 427 79 43 219 89 280 93 48 3 50 2 56 -27 4 -16 7 -98 8 -181 1 -129&#10;        3 -153 17 -158 20 -8 842 -8 872 0 22 6 22 8 22 188 0 101 3 186 6 189 4 4 16&#10;        5 28 2 12 -2 46 -9 76 -15z"/></g></svg></g><svg x="0" y="calc(1.5em * 0)" style="overflow: visible;"><text transform="translate(1137,51)" text-anchor="middle" style="font-family: arial; font-size: 16px; line-height: 1.5em;"><tspan x="0" dy="0.355em">IT Interview</tspan></text></svg></g><g data-kie-bpmn-node-id="_5BDBE48C-CC83-46A9-9D56-F846F8FC1045"><rect x="220.75" y="0.75" stroke-width="1.5" width="152.5" height="100.6" fill="rgba(255, 255, 255, 0.9)" stroke="rgba(0, 0, 0, 1)" stroke-linejoin="round" rx="3" ry="3"/><g transform="translate(223.75, 3.75)"><svg version="1.0" xmlns="http://www.w3.org/2000/svg" width="25" height="22.71825396825397" viewBox="0 0 252 229" preserveAspectRatio="xMidYMid meet"><g transform="translate(0, 229) scale(0.1, -0.1)" fill="black" stroke="none"><path d="M730 2196 c-241 -98 -407 -212 -496 -342 -103 -152 -117 -357 -37&#10;        -544 38 -90 92 -185 138 -242 74 -92 128 -182 166 -278 30 -77 34 -95 34 -185&#10;        0 -94 -2 -104 -34 -167 -18 -37 -56 -90 -83 -119 -55 -55 -168 -134 -245 -169&#10;        -83 -37 -98 -48 -107 -74 -6 -17 -6 -34 2 -51 l12 -25 837 0 838 0 100 50&#10;        c174 86 288 191 352 323 45 92 57 155 50 266 -10 169 -76 322 -214 494 -95&#10;        118 -162 267 -178 393 -9 68 18 173 60 239 71 112 230 222 430 299 139 54 155&#10;        65 155 112 0 67 45 64 -860 63 l-815 0 -105 -43z m1370 -93 c0 -5 -26 -24 -58&#10;        -43 -31 -19 -95 -73 -142 -120 -95 -95 -140 -172 -160 -278 -35 -175 40 -420&#10;        181 -593 101 -124 162 -236 193 -357 20 -77 20 -131 2 -197 -43 -156 -136&#10;        -253 -346 -362 l-55 -28 -647 -3 c-357 -1 -648 0 -648 4 0 4 34 40 75 81 127&#10;        127 175 238 175 404 0 174 -68 335 -228 541 -46 60 -116 192 -142 268 -6 19&#10;        -14 73 -17 120 -4 70 -2 95 15 143 54 152 208 277 471 383 l106 42 613 1 c336&#10;        1 612 -2 612 -6z"/><path d="M502 1794 c-28 -19 -30 -74 -4 -97 17 -15 72 -17 579 -17 530 0 561&#10;        1 576 18 23 25 21 68 -3 92 -20 20 -33 20 -573 20 -484 0 -555 -2 -575 -16z"/><path d="M497 1372 c-25 -27 -22 -78 5 -96 20 -14 91 -16 573 -16 612 0 595&#10;        -2 595 64 0 69 26 66 -597 66 -530 0 -561 -1 -576 -18z"/><path d="M767 892 c-10 -10 -17 -33 -17 -50 0 -64 -14 -62 600 -60 l553 3 19&#10;        26 c21 28 18 57 -8 84 -13 13 -90 15 -573 15 -528 0 -559 -1 -574 -18z"/><path d="M758 479 c-47 -27 -42 -95 8 -118 18 -8 183 -11 558 -11 524 0 534 0&#10;        560 21 32 25 35 70 6 99 -20 20 -33 20 -567 20 -351 0 -554 -4 -565 -11z"/></g></svg></g><svg x="0" y="calc(1.5em * 0)" style="overflow: visible;"><text transform="translate(297,51)" text-anchor="middle" style="font-family: arial; font-size: 16px; line-height: 1.5em;"><tspan x="0" dy="0.355em">New Hiring</tspan></text></svg></g><g data-kie-bpmn-node-id="_834B21EF-9229-44F8-A5DB-D96EBB39A347"><rect x="880.75" y="180.75" stroke-width="1.5" width="152.5000000000001" height="100.60000000000002" fill="rgba(255, 255, 255, 0.9)" stroke="rgba(0, 0, 0, 1)" stroke-linejoin="round" rx="3" ry="3"/><g transform="translate(883.75, 183.75)"><svg version="1.0" xmlns="http://www.w3.org/2000/svg" width="25" height="22.71825396825397" viewBox="0 0 252 229" preserveAspectRatio="xMidYMid meet"><g transform="translate(0, 229) scale(0.1, -0.1)" fill="black" stroke="none"><path d="M730 2196 c-241 -98 -407 -212 -496 -342 -103 -152 -117 -357 -37&#10;        -544 38 -90 92 -185 138 -242 74 -92 128 -182 166 -278 30 -77 34 -95 34 -185&#10;        0 -94 -2 -104 -34 -167 -18 -37 -56 -90 -83 -119 -55 -55 -168 -134 -245 -169&#10;        -83 -37 -98 -48 -107 -74 -6 -17 -6 -34 2 -51 l12 -25 837 0 838 0 100 50&#10;        c174 86 288 191 352 323 45 92 57 155 50 266 -10 169 -76 322 -214 494 -95&#10;        118 -162 267 -178 393 -9 68 18 173 60 239 71 112 230 222 430 299 139 54 155&#10;        65 155 112 0 67 45 64 -860 63 l-815 0 -105 -43z m1370 -93 c0 -5 -26 -24 -58&#10;        -43 -31 -19 -95 -73 -142 -120 -95 -95 -140 -172 -160 -278 -35 -175 40 -420&#10;        181 -593 101 -124 162 -236 193 -357 20 -77 20 -131 2 -197 -43 -156 -136&#10;        -253 -346 -362 l-55 -28 -647 -3 c-357 -1 -648 0 -648 4 0 4 34 40 75 81 127&#10;        127 175 238 175 404 0 174 -68 335 -228 541 -46 60 -116 192 -142 268 -6 19&#10;        -14 73 -17 120 -4 70 -2 95 15 143 54 152 208 277 471 383 l106 42 613 1 c336&#10;        1 612 -2 612 -6z"/><path d="M502 1794 c-28 -19 -30 -74 -4 -97 17 -15 72 -17 579 -17 530 0 561&#10;        1 576 18 23 25 21 68 -3 92 -20 20 -33 20 -573 20 -484 0 -555 -2 -575 -16z"/><path d="M497 1372 c-25 -27 -22 -78 5 -96 20 -14 91 -16 573 -16 612 0 595&#10;        -2 595 64 0 69 26 66 -597 66 -530 0 -561 -1 -576 -18z"/><path d="M767 892 c-10 -10 -17 -33 -17 -50 0 -64 -14 -62 600 -60 l553 3 19&#10;        26 c21 28 18 57 -8 84 -13 13 -90 15 -573 15 -528 0 -559 -1 -574 -18z"/><path d="M758 479 c-47 -27 -42 -95 8 -118 18 -8 183 -11 558 -11 524 0 534 0&#10;        560 21 32 25 35 70 6 99 -20 20 -33 20 -567 20 -351 0 -554 -4 -565 -11z"/></g></svg></g><svg x="0" y="calc(1.5em * 0)" style="overflow: visible;"><text transform="translate(957,231)" text-anchor="middle" style="font-family: arial; font-size: 16px; line-height: 1.5em;"><tspan x="0" dy="-1.145em">Send notification</tspan><tspan x="0" dy="1.5em">HR Interview</tspan><tspan x="0" dy="1.5em">avoided</tspan></text></svg></g><g data-kie-bpmn-node-id="_B9662806-84F3-4444-AD62-4790CDA7C85D"><rect x="1248.75" y="28.75" transform="rotate(45,1268,48.05)" stroke-width="1.5" width="38.92857142857143" height="39" fill="#fef5ea" stroke="#ec7b08" stroke-linejoin="round" rx="5" ry="5"/><line x1="1258" y1="38.05" x2="1278" y2="58.05" stroke="#ec7b08" stroke-width="4.5"/><line x1="1278" y1="38.05" x2="1258" y2="58.05" stroke="#ec7b08" stroke-width="4.5"/></g><g data-kie-bpmn-node-id="_A51A809E-03C0-4EA7-91F1-7B3C5E29AD04"><rect x="428.75" y="28.75" transform="rotate(45,448,48.05)" stroke-width="1.5" width="38.92857142857143" height="39" fill="#fef5ea" stroke="#ec7b08" stroke-linejoin="round" rx="5" ry="5"/><line x1="438" y1="38.05" x2="458" y2="58.05" stroke="#ec7b08" stroke-width="4.5"/><line x1="458" y1="38.05" x2="438" y2="58.05" stroke="#ec7b08" stroke-width="4.5"/></g><g data-kie-bpmn-node-id="_30C8C01B-4149-4AE5-8D86-D27D57BCA8E7"><rect x="1248.75" y="388.75" transform="rotate(45,1268,408.05)" stroke-width="1.5" width="38.92857142857143" height="39" fill="#fef5ea" stroke="#ec7b08" stroke-linejoin="round" rx="5" ry="5"/><line x1="1258" y1="398.05" x2="1278" y2="418.05" stroke="#ec7b08" stroke-width="4.5"/><line x1="1278" y1="398.05" x2="1258" y2="418.05" stroke="#ec7b08" stroke-width="4.5"/></g><g data-kie-bpmn-node-id="_4B7FF147-F096-435B-8CAF-48318EF786B0"><rect x="1340.75" y="360.75" stroke-width="1.5" width="152.5" height="100.6" fill="rgba(255, 255, 255, 0.9)" stroke="rgba(0, 0, 0, 1)" stroke-linejoin="round" rx="3" ry="3"/><g transform="translate(1343.75, 363.75)"><svg version="1.0" xmlns="http://www.w3.org/2000/svg" width="25" height="22.71825396825397" viewBox="0 0 252 229" preserveAspectRatio="xMidYMid meet"><g transform="translate(0, 229) scale(0.1, -0.1)" fill="black" stroke="none"><path d="M730 2196 c-241 -98 -407 -212 -496 -342 -103 -152 -117 -357 -37&#10;        -544 38 -90 92 -185 138 -242 74 -92 128 -182 166 -278 30 -77 34 -95 34 -185&#10;        0 -94 -2 -104 -34 -167 -18 -37 -56 -90 -83 -119 -55 -55 -168 -134 -245 -169&#10;        -83 -37 -98 -48 -107 -74 -6 -17 -6 -34 2 -51 l12 -25 837 0 838 0 100 50&#10;        c174 86 288 191 352 323 45 92 57 155 50 266 -10 169 -76 322 -214 494 -95&#10;        118 -162 267 -178 393 -9 68 18 173 60 239 71 112 230 222 430 299 139 54 155&#10;        65 155 112 0 67 45 64 -860 63 l-815 0 -105 -43z m1370 -93 c0 -5 -26 -24 -58&#10;        -43 -31 -19 -95 -73 -142 -120 -95 -95 -140 -172 -160 -278 -35 -175 40 -420&#10;        181 -593 101 -124 162 -236 193 -357 20 -77 20 -131 2 -197 -43 -156 -136&#10;        -253 -346 -362 l-55 -28 -647 -3 c-357 -1 -648 0 -648 4 0 4 34 40 75 81 127&#10;        127 175 238 175 404 0 174 -68 335 -228 541 -46 60 -116 192 -142 268 -6 19&#10;        -14 73 -17 120 -4 70 -2 95 15 143 54 152 208 277 471 383 l106 42 613 1 c336&#10;        1 612 -2 612 -6z"/><path d="M502 1794 c-28 -19 -30 -74 -4 -97 17 -15 72 -17 579 -17 530 0 561&#10;        1 576 18 23 25 21 68 -3 92 -20 20 -33 20 -573 20 -484 0 -555 -2 -575 -16z"/><path d="M497 1372 c-25 -27 -22 -78 5 -96 20 -14 91 -16 573 -16 612 0 595&#10;        -2 595 64 0 69 26 66 -597 66 -530 0 -561 -1 -576 -18z"/><path d="M767 892 c-10 -10 -17 -33 -17 -50 0 -64 -14 -62 600 -60 l553 3 19&#10;        26 c21 28 18 57 -8 84 -13 13 -90 15 -573 15 -528 0 -559 -1 -574 -18z"/><path d="M758 479 c-47 -27 -42 -95 8 -118 18 -8 183 -11 558 -11 524 0 534 0&#10;        560 21 32 25 35 70 6 99 -20 20 -33 20 -567 20 -351 0 -554 -4 -565 -11z"/></g></svg></g><svg x="0" y="calc(1.5em * 0)" style="overflow: visible;"><text transform="translate(1417,411)" text-anchor="middle" style="font-family: arial; font-size: 16px; line-height: 1.5em;"><tspan x="0" dy="0.355em">Application denied</tspan></text></svg></g><g data-kie-bpmn-node-id="_457DC13A-0AEC-4390-A860-5CCFFB67B366"><circle cx="1568" cy="408.05" stroke-width="6" width="50" height="50.1" fill="#fce7e7" stroke="#a30000" stroke-linejoin="round" r="25"/></g><g data-kie-bpmn-node-id="_F4D56F6C-4CFE-4D5C-BF5E-67261F68EF1A"><rect x="500.75" y="0.75" stroke-width="1.5" width="152.49999999999994" height="100.6" fill="rgba(255, 255, 255, 0.9)" stroke="rgba(0, 0, 0, 1)" stroke-linejoin="round" rx="3" ry="3"/><g transform="translate(503.75, 3.75)"><rect x="0" y="0" width="25" height="5" fill="lightgrey" stroke="black" stroke-width="1"/><rect x="0" y="5" width="8.333333333333334" height="6.25" fill="none" stroke="black" stroke-width="1"/><rect x="8.333333333333334" y="5" width="16.666666666666668" height="6.25" fill="none" stroke="black" stroke-width="1"/><rect x="0" y="11.25" width="8.333333333333334" height="6.25" fill="none" stroke="black" stroke-width="1"/><rect x="8.333333333333334" y="11.25" width="16.666666666666668" height="6.25" fill="none" stroke="black" stroke-width="1"/></g><svg x="0" y="calc(1.5em * 0)" style="overflow: visible;"><text transform="translate(577,51)" text-anchor="middle" style="font-family: arial; font-size: 16px; line-height: 1.5em;"><tspan x="0" dy="-0.395em">Generate base</tspan><tspan x="0" dy="1.5em">offer</tspan></text></svg></g><g data-kie-bpmn-node-id="_6CE52250-BCEE-485C-8AE4-F6CACF2EF5A1"><circle cx="1568" cy="48.05" stroke-width="6" width="50" height="50.099999999999994" fill="#fce7e7" stroke="#a30000" stroke-linejoin="round" r="25"/></g><g data-kie-bpmn-node-id="_57DBE42C-6850-4A08-AC73-2BB0FFDFCC8C"><rect x="680.75" y="0.75" stroke-width="1.5" width="152.5" height="100.6" fill="rgba(255, 255, 255, 0.9)" stroke="rgba(0, 0, 0, 1)" stroke-linejoin="round" rx="3" ry="3"/><g transform="translate(683.75, 3.75)"><svg version="1.0" xmlns="http://www.w3.org/2000/svg" width="25" height="22.71825396825397" viewBox="0 0 252 229" preserveAspectRatio="xMidYMid meet"><g transform="translate(0, 229) scale(0.1, -0.1)" fill="black" stroke="none"><path d="M730 2196 c-241 -98 -407 -212 -496 -342 -103 -152 -117 -357 -37&#10;        -544 38 -90 92 -185 138 -242 74 -92 128 -182 166 -278 30 -77 34 -95 34 -185&#10;        0 -94 -2 -104 -34 -167 -18 -37 -56 -90 -83 -119 -55 -55 -168 -134 -245 -169&#10;        -83 -37 -98 -48 -107 -74 -6 -17 -6 -34 2 -51 l12 -25 837 0 838 0 100 50&#10;        c174 86 288 191 352 323 45 92 57 155 50 266 -10 169 -76 322 -214 494 -95&#10;        118 -162 267 -178 393 -9 68 18 173 60 239 71 112 230 222 430 299 139 54 155&#10;        65 155 112 0 67 45 64 -860 63 l-815 0 -105 -43z m1370 -93 c0 -5 -26 -24 -58&#10;        -43 -31 -19 -95 -73 -142 -120 -95 -95 -140 -172 -160 -278 -35 -175 40 -420&#10;        181 -593 101 -124 162 -236 193 -357 20 -77 20 -131 2 -197 -43 -156 -136&#10;        -253 -346 -362 l-55 -28 -647 -3 c-357 -1 -648 0 -648 4 0 4 34 40 75 81 127&#10;        127 175 238 175 404 0 174 -68 335 -228 541 -46 60 -116 192 -142 268 -6 19&#10;        -14 73 -17 120 -4 70 -2 95 15 143 54 152 208 277 471 383 l106 42 613 1 c336&#10;        1 612 -2 612 -6z"/><path d="M502 1794 c-28 -19 -30 -74 -4 -97 17 -15 72 -17 579 -17 530 0 561&#10;        1 576 18 23 25 21 68 -3 92 -20 20 -33 20 -573 20 -484 0 -555 -2 -575 -16z"/><path d="M497 1372 c-25 -27 -22 -78 5 -96 20 -14 91 -16 573 -16 612 0 595&#10;        -2 595 64 0 69 26 66 -597 66 -530 0 -561 -1 -576 -18z"/><path d="M767 892 c-10 -10 -17 -33 -17 -50 0 -64 -14 -62 600 -60 l553 3 19&#10;        26 c21 28 18 57 -8 84 -13 13 -90 15 -573 15 -528 0 -559 -1 -574 -18z"/><path d="M758 479 c-47 -27 -42 -95 8 -118 18 -8 183 -11 558 -11 524 0 534 0&#10;        560 21 32 25 35 70 6 99 -20 20 -33 20 -567 20 -351 0 -554 -4 -565 -11z"/></g></svg></g><svg x="0" y="calc(1.5em * 0)" style="overflow: visible;"><text transform="translate(757,51)" text-anchor="middle" style="font-family: arial; font-size: 16px; line-height: 1.5em;"><tspan x="0" dy="0.355em">Log Offer</tspan></text></svg></g><g data-kie-bpmn-node-id="_940F2A0C-8CC6-4ECA-B504-49363AF68B67"><rect x="1340.75" y="0.75" stroke-width="1.5" width="152.5" height="100.6" fill="rgba(255, 255, 255, 0.9)" stroke="rgba(0, 0, 0, 1)" stroke-linejoin="round" rx="3" ry="3"/><g transform="translate(1343.75, 3.75)"><svg version="1.0" xmlns="http://www.w3.org/2000/svg" width="25" height="22.71825396825397" viewBox="0 0 252 229" preserveAspectRatio="xMidYMid meet"><g transform="translate(0, 229) scale(0.1, -0.1)" fill="black" stroke="none"><path d="M730 2196 c-241 -98 -407 -212 -496 -342 -103 -152 -117 -357 -37&#10;        -544 38 -90 92 -185 138 -242 74 -92 128 -182 166 -278 30 -77 34 -95 34 -185&#10;        0 -94 -2 -104 -34 -167 -18 -37 -56 -90 -83 -119 -55 -55 -168 -134 -245 -169&#10;        -83 -37 -98 -48 -107 -74 -6 -17 -6 -34 2 -51 l12 -25 837 0 838 0 100 50&#10;        c174 86 288 191 352 323 45 92 57 155 50 266 -10 169 -76 322 -214 494 -95&#10;        118 -162 267 -178 393 -9 68 18 173 60 239 71 112 230 222 430 299 139 54 155&#10;        65 155 112 0 67 45 64 -860 63 l-815 0 -105 -43z m1370 -93 c0 -5 -26 -24 -58&#10;        -43 -31 -19 -95 -73 -142 -120 -95 -95 -140 -172 -160 -278 -35 -175 40 -420&#10;        181 -593 101 -124 162 -236 193 -357 20 -77 20 -131 2 -197 -43 -156 -136&#10;        -253 -346 -362 l-55 -28 -647 -3 c-357 -1 -648 0 -648 4 0 4 34 40 75 81 127&#10;        127 175 238 175 404 0 174 -68 335 -228 541 -46 60 -116 192 -142 268 -6 19&#10;        -14 73 -17 120 -4 70 -2 95 15 143 54 152 208 277 471 383 l106 42 613 1 c336&#10;        1 612 -2 612 -6z"/><path d="M502 1794 c-28 -19 -30 -74 -4 -97 17 -15 72 -17 579 -17 530 0 561&#10;        1 576 18 23 25 21 68 -3 92 -20 20 -33 20 -573 20 -484 0 -555 -2 -575 -16z"/><path d="M497 1372 c-25 -27 -22 -78 5 -96 20 -14 91 -16 573 -16 612 0 595&#10;        -2 595 64 0 69 26 66 -597 66 -530 0 -561 -1 -576 -18z"/><path d="M767 892 c-10 -10 -17 -33 -17 -50 0 -64 -14 -62 600 -60 l553 3 19&#10;        26 c21 28 18 57 -8 84 -13 13 -90 15 -573 15 -528 0 -559 -1 -574 -18z"/><path d="M758 479 c-47 -27 -42 -95 8 -118 18 -8 183 -11 558 -11 524 0 534 0&#10;        560 21 32 25 35 70 6 99 -20 20 -33 20 -567 20 -351 0 -554 -4 -565 -11z"/></g></svg></g><svg x="0" y="calc(1.5em * 0)" style="overflow: visible;"><text transform="translate(1417,51)" text-anchor="middle" style="font-family: arial; font-size: 16px; line-height: 1.5em;"><tspan x="0" dy="-0.395em">Send Offer to</tspan><tspan x="0" dy="1.5em">Candidate</tspan></text></svg></g></g></svg>